<?xml version="1.0" encoding="UTF-8"?>
<svg width="375px" height="323px" viewBox="0 0 375 323" version="1.1" xmlns="http://www.w3.org/2000/svg" xmlns:xlink="http://www.w3.org/1999/xlink">
    <!-- Generator: Sketch 49.3 (51167) - http://www.bohemiancoding.com/sketch -->
    <title>Artboard</title>
    <desc>Created with Sketch.</desc>
    <defs></defs>
    <g id="Artboard" stroke="none" stroke-width="1" fill="none" fill-rule="evenodd">
        <g id="mark" fill="#870073">
            <path d="M170.5479,162.7274 C159.5039,181.1464 129.2569,236.4734 124.0269,242.0124 C117.9909,248.7374 97.1889,240.7134 87.5659,231.5964 C84.4989,228.6664 86.6289,222.8914 85.6229,219.5714 C85.1749,217.5914 83.2249,217.3434 82.2139,215.4694 C78.3089,207.5374 98.4679,93.6054 116.8769,53.5444 C99.5659,75.4264 35.7579,107.1844 19.6509,102.8134 C1.5649,97.9904 -4.8051,74.0014 3.7699,76.5014 C31.0959,84.5244 96.0919,48.6154 125.0429,23.2794 C131.5839,17.4894 170.1499,30.8114 164.5489,43.8574 C148.7439,80.3254 132.7709,171.7714 132.0159,200.0074 C131.8719,203.3404 171.0329,135.3694 174.5039,128.0994 C176.4689,124.0074 193.2179,5.9754 204.0349,0.6124 C210.8899,-2.7556 250.6399,7.8604 245.8659,30.2504 C234.6629,82.9894 195.9139,260.7704 206.4429,306.4844 C207.8139,312.6264 229.6709,299.1744 228.3479,285.9984 C227.4889,277.8994 249.5899,290.0154 239.7039,305.5294 C232.0479,317.5194 216.3529,326.7014 202.0129,321.1644 C162.2239,305.8044 159.8859,204.8284 170.5479,162.7274" id="Fill-1"></path>
            <path d="M325.239,87.1283291 C314.058,114.868329 300.261,141.659329 285.741,168.794329 C298.862,170.844329 313.503,174.255329 324.985,178.476329 C322.566,147.952329 323.272,117.866329 325.239,87.1283291 M328.743,200.069329 C326.775,187.844329 284.36,183.310329 281.734,185.255329 C274.3,185.637329 247.385,244.461329 242.451,249.324329 C232.395,259.086329 219.781,240.209329 222.894,236.106329 C225.364,232.950329 258.075,184.797329 257.517,183.458329 C247.178,180.673329 208.926,187.535329 197.87,192.531329 C193.345,194.629329 193.001,193.457329 192,188.690329 C192.122,174.826329 194.404,171.707329 195.885,168.327329 C196.477,166.975329 198.136,166.453329 199.26,166.239329 C222.528,163.672329 251.404,162.933329 267.438,165.253329 C269.176,165.335329 270.247,164.719329 271.188,163.094329 C305.733,100.959329 334.665,20.6823291 330.311,1.88732913 C336.718,-3.46267087 372.923,3.49032913 373.915,11.1513291 C368.15,86.6093291 355.192,232.426329 374.321,254.195329 C336.997,246.009329 332.234,221.093329 328.743,200.069329" id="Fill-6"></path>
        </g>
    </g>
</svg>