<?xml version="1.0" encoding="UTF-8"?>
<svg width="476px" height="261px" viewBox="0 0 476 261" version="1.1" xmlns="http://www.w3.org/2000/svg" xmlns:xlink="http://www.w3.org/1999/xlink">
    <!-- Generator: Sketch 47.1 (45422) - http://www.bohemiancoding.com/sketch -->
    <title>logo</title>
    <desc>Created with Sketch.</desc>
    <defs></defs>
    <g id="desktop-11/10" stroke="none" stroke-width="1" fill="none" fill-rule="evenodd">
        <g id="Artboard" transform="translate(-2302.000000, -279.000000)" fill="#00203B">
            <g id="logo-2" transform="translate(2302.000000, 279.000000)">
                <g id="logo">
                    <path d="M89.2327432,85.1675506 C83.4543876,94.8076058 67.628788,123.764408 64.8923881,126.663385 C61.7342792,130.183086 50.8504189,125.98352 45.8155478,121.211905 C44.210856,119.678414 45.325298,116.65592 44.7989465,114.918313 C44.5645474,113.882029 43.5442836,113.752232 43.0153161,112.771426 C40.9721724,108.620011 51.5196073,48.9907824 61.1514208,28.0238325 C52.0940943,39.4763373 18.7089698,56.0976996 10.2815908,53.8100249 C0.818774783,51.2857844 -2.51408698,38.7305271 1.9724577,40.0389661 C16.2697545,44.2380086 50.2764551,25.4441141 65.4239717,12.1838699 C68.8463028,9.15352522 89.0245048,16.125935 86.0939932,22.953893 C77.8246243,42.0403544 69.4673557,89.9009595 69.0723305,104.678993 C68.9969879,106.423404 89.4865012,70.8490409 91.3025707,67.0441003 C92.3306827,64.9024474 101.093964,3.12737856 106.75355,0.320515217 C110.34017,-1.4422138 131.137855,4.11394156 128.64004,15.8323212 C122.778494,43.434627 102.504544,136.480865 108.013445,160.406457 C108.730769,163.62103 120.166619,156.580581 119.474409,149.684584 C119.02497,145.445765 130.588483,151.786984 125.416007,159.906633 C121.410294,166.181906 113.198478,170.987541 105.695615,168.08961 C84.8775248,160.050561 83.6542547,107.202187 89.2327432,85.1675506" id="Fill-1"></path>
                    <path d="M215.124507,69.7576458 C210.451175,70.1062139 201.271417,66.6634492 203.138238,60.1463763 C207.180053,46.4041031 214.64943,42.0642727 216.397482,42.3803915 C221.37323,43.5961931 216.006119,69.5896422 215.124507,69.7576458 M197.872631,98.5537713 C194.910726,97.3871671 194.196018,88.7661242 199.972804,70.5861494 C201.82236,74.0179232 210.462686,75.617359 212.742845,75.4001581 C210.136202,86.2748563 202.09286,100.129132 197.872631,98.5537713 M292.984762,36.1339038 C290.264058,38.381802 284.16445,52.5150366 279.157833,65.7915055 C280.563704,58.8211893 282.622021,49.1324601 285.801058,34.1492635 C287.234136,27.3898676 275.425237,23.7984642 269.04571,24.1475558 C266.05189,24.2852035 258.878651,37.1089525 255.852915,43.1984276 C256.491233,40.3737695 257.937915,33.7206189 257.465978,32.405376 C256.662324,30.0711208 240.829399,24.8671972 240.284212,29.1871394 C239.910639,32.1913154 237.324924,46.4046265 234.801471,59.6878992 C231.083525,67.0523173 225.99738,70.028231 221.544844,69.7251965 C224.113816,57.7770549 223.991384,42.881262 221.580945,39.7724109 C217.427164,34.832792 198.46386,28.7108676 193.836048,32.5105745 C179.711412,45.1432913 175.12598,71.7459497 174.740373,78.8460631 C174.706364,80.1377541 174.955936,81.2818531 175.392818,82.3092394 C172.533987,85.5698694 169.062474,87.479667 165.066702,87.0651535 C171.272522,65.9924817 173.184339,58.277402 171.274615,55.9379131 C168.502113,52.3569772 158.064553,43.8563107 156.389751,47.2017276 C155.813694,48.1767763 147.282196,66.0160336 147.648968,64.9729461 C148.146019,57.959713 142.26773,54.4290212 132.443374,51.4337427 C127.412166,49.795577 128.246166,51.5834281 128.232563,56.1263283 C128.188613,61.2156326 118.589238,117.312076 118.083292,122.706508 C116.058984,144.280574 136.153995,155.268321 135.758447,152.208668 C134.446231,142.080303 133.168547,125.24174 144.101066,81.7560314 C145.969456,74.4821573 149.658626,66.5367923 151.599743,62.9239306 C159.914631,47.2880845 147.279057,80.718701 142.851112,96.9129888 C141.096781,103.517465 154.192783,111.620367 156.951681,110.446435 C158.856696,109.651428 162.471046,94.1532292 162.863455,94.0789099 C164.114456,93.8412974 171.589589,93.8161754 178.115614,85.9932803 C180.980725,88.6352803 184.723785,90.1849954 185.346407,91.747795 C186.442014,94.7823267 188.061355,100.312313 195.983835,103.345275 C206.113746,107.148122 216.944239,87.68169 220.056828,76.0622283 C220.059444,75.3059505 219.918177,75.7649509 220.617188,75.7398289 C224.078237,75.080899 228.978643,73.0925951 233.124576,68.4235614 C231.659059,75.9711609 230.412244,82.121871 229.919378,84.0238179 C228.107494,90.963255 245.874735,94.8268136 246.358183,92.3570042 C247.693943,85.6154031 254.61918,53.0546369 266.58452,33.0486046 C264.09403,42.4950108 258.373228,74.2864149 258.919985,78.5069157 C259.507552,83.0440588 273.521791,88.1616254 275.132761,87.4220957 L275.328443,87.384936 C282.8695,59.5722332 292.865993,42.967619 295.119991,37.8898289 C295.51397,37.0581851 294.345113,35.0102163 292.984762,36.1339038" id="Fill-4"></path>
                    <path d="M184.365243,172.956554 C178.515207,187.474993 171.296448,201.496749 163.699407,215.698546 C170.564474,216.771466 178.224824,218.5567 184.232347,220.765868 C182.966696,204.790352 183.336084,189.044073 184.365243,172.956554 M186.198578,232.067118 C185.168897,225.668851 162.976851,223.295866 161.602896,224.313832 C157.713336,224.513761 143.63108,255.300807 141.04955,257.845983 C135.788129,262.955175 129.18833,253.075414 130.817089,250.928004 C132.109423,249.276231 149.224218,224.074126 148.932266,223.373326 C143.522775,221.915725 123.508861,225.507128 117.724227,228.121912 C115.356692,229.219954 115.176707,228.606558 114.652971,226.111627 C114.716803,218.855547 115.910774,217.223139 116.685651,215.454129 C116.995392,214.746526 117.863402,214.473324 118.451492,214.361321 C130.625594,213.017816 145.733869,212.631041 154.123054,213.845273 C155.032397,213.88819 155.592757,213.56579 156.0851,212.715305 C174.159465,180.195362 189.297041,138.180339 187.018975,128.343495 C190.371196,125.543435 209.314094,129.182466 209.83312,133.192046 C206.816802,172.684922 200.037018,249.001982 210.045544,260.395345 C190.517172,256.110993 188.025112,243.070566 186.198578,232.067118" id="Fill-6"></path>
                    <path d="M311.466987,136.667836 C313.132894,136.351194 312.845651,138.783843 311.608254,140.857458 C311.298512,141.564015 310.361963,141.310177 310.181454,140.695211 C310.197674,140.044132 310.14326,139.622814 309.598596,139.293611 C308.452238,138.970165 310.291329,136.891317 311.466987,136.667836 M309.384079,150.036942 C319.827918,151.617536 322.959343,143.23777 323.531737,139.129271 C324.317602,133.574163 320.132427,125.289127 314.495339,125.172414 C307.152056,125.055701 297.77557,135.596486 303.936393,142.857276 C299.596348,144.223286 303.343594,149.131502 309.384079,150.036942" id="Fill-8"></path>
                    <path d="M262.230364,154.899101 L256.087329,169.474065 C253.744908,166.892253 258.34342,154.34223 262.230364,154.899101 L262.230364,154.899101 Z M217.095463,176.891868 C214.753041,174.310579 219.351554,161.760032 223.23902,162.317427 L217.095463,176.891868 Z M388.618551,102.205646 C385.697457,101.356207 378.405972,102.419183 376.344516,104.324794 C369.512934,110.489112 349.618836,170.81443 344.373111,189.217886 C342.406356,196.511649 350.952504,150.885334 353.316377,142.003127 C354.604002,137.21738 336.330816,129.45101 333.990487,135.409641 C332.19273,140.083908 330.033434,153.933997 328.393686,167.267514 C322.414941,180.173433 311.354235,203.225511 311.074316,201.06711 C310.773469,198.745416 318.262729,160.45578 317.959789,158.891934 C317.135206,154.075832 310.678244,152.27699 301.808228,152.775243 C301.22066,153.470809 299.867634,159.454563 298.339854,167.134053 C293.304983,174.772196 281.857623,203.557854 277.302014,217.004944 C274.823558,208.720431 281.121464,189.143567 284.497229,178.771833 C287.504652,169.442663 266.282642,174.560753 268.454496,168.850201 C271.23223,161.619768 274.782748,153.377125 273.306243,151.278912 C271.454072,148.604463 261.893415,146.099064 258.671997,147.576553 C254.315209,149.59469 250.696674,161.958392 250.108583,166.719539 C249.294988,173.169097 253.176176,174.387515 258.94773,175.181999 C253.729212,183.658591 242.74908,211.321085 238.310148,224.423269 C235.831168,216.138757 242.13012,196.561369 245.504839,186.189635 C248.512786,176.860465 227.291299,181.979078 229.462629,176.268527 C232.240886,169.038093 235.790881,160.794928 234.314899,158.697238 C232.461682,156.022266 222.902072,153.516867 219.680131,154.994879 C215.323866,157.013016 211.704807,169.376717 211.116717,174.137865 C210.027389,182.777226 217.359161,182.030893 226.37777,183.450811 C227.81765,183.717209 228.277554,184.169405 227.783118,185.777738 C223.171003,198.222564 214.229306,217.545067 222.256428,222.937406 C227.042773,226.567016 239.692475,229.673773 240.732097,228.39569 C240.914175,228.252285 241.082649,228.004205 241.153283,227.774443 C248.466743,201.301059 259.291481,181.825729 262.344424,175.612214 C263.3244,175.736254 264.334723,175.869192 265.369114,176.032485 C266.808994,176.299406 267.269944,176.751603 266.775508,178.359413 C262.162346,190.804761 253.221173,210.127265 261.247771,215.51908 C266.03464,219.14869 278.684341,222.255448 279.723964,220.977364 C279.905518,220.83396 280.073993,220.58588 280.14515,220.356118 C285.043985,202.624676 291.51769,188.035581 296.177418,178.462518 C293.82401,191.226078 291.69035,204.094838 291.787144,204.844835 C292.401919,209.592375 306.213151,217.018028 310.100618,212.927324 C311.240697,211.713093 320.203846,193.177223 327.128036,178.424311 C326.325429,186.172887 325.833609,192.594182 325.876513,195.223621 C325.926218,197.159588 326.090506,198.426157 327.669038,198.990356 C329.555741,199.604798 331.30327,199.920917 331.494765,201.398407 C331.779393,204.370657 332.952958,204.9045 338.529877,206.113497 C345.463485,207.71398 346.156218,205.311163 346.584729,202.418989 C351.594485,174.438806 370.612726,125.955384 389.206118,106.742266 C390.791974,105.036061 390.447701,103.155049 388.618551,102.205646 L388.618551,102.205646 Z" id="Fill-10"></path>
                    <path d="M475.407161,139.856135 C474.799188,132.837145 471.135656,127.804365 467.941446,124.844676 C467.34446,123.336308 466.426746,121.673544 464.961229,120.438377 C461.614764,117.075689 459.798694,116.231484 457.435344,120.464546 C455.098156,125.666376 457.914084,128.80663 458.786278,127.018779 C459.857294,124.436443 462.192913,124.641083 464.400869,125.409399 C466.386982,139.194065 447.699412,175.505864 436.874151,184.160403 C435.439503,163.785391 449.257014,100.723342 449.464206,101.548705 C448.846816,97.5584895 432.29866,93.0307671 429.658532,96.6677042 C429.009225,97.623388 423.60392,127.476732 419.77453,151.18146 C417.030282,156.619332 413.987803,163.669725 411.222103,170.554208 C412.796449,163.335811 414.202843,156.365495 413.975246,153.058285 C413.788459,150.066147 403.342527,144.593731 399.908162,146.760506 C398.885282,147.38751 396.918528,154.680749 395.131758,162.588431 C389.375377,173.953532 382.489381,188.993777 380.14696,195.709733 C379.031472,180.894539 388.134841,154.298162 399.929091,139.946156 C399.824448,137.587302 388.874663,127.45475 384.84122,128.870481 C372.182101,133.441121 359.42985,177.59675 362.772129,187.123756 C365.489694,194.930426 380.308633,202.381725 382.211556,197.69542 C383.901531,193.697877 388.366624,183.983502 392.474363,176.175262 C391.918712,179.632681 391.672279,182.381973 391.822441,183.542297 C392.478549,188.606479 401.325021,195.680424 406.706782,192.277959 L406.805146,192.259117 C410.452458,180.340808 414.390153,170.686622 417.904046,163.135359 C416.739376,170.886028 415.966591,176.842566 415.935722,179.063248 C415.901713,181.123778 429.074627,186.725467 434.889607,188.213947 C438.826256,190.708355 446.593864,194.095642 449.411885,191.829426 C458.849587,184.088701 477.133761,156.285419 475.407161,139.856135" id="Fill-12"></path>
                </g>
            </g>
        </g>
    </g>
</svg>